<svg width="16" height="16" viewBox="0 0 16 16" fill="none" xmlns="http://www.w3.org/2000/svg">
<path d="M6.00004 7.17325C5.99991 7.42131 5.93058 7.66441 5.79985 7.87522C5.66913 8.08603 5.48218 8.2562 5.26004 8.36658L4.07337 8.96658C3.85123 9.07697 3.66429 9.24714 3.53356 9.45795C3.40283 9.66876 3.33351 9.91186 3.33337 10.1599V10.6666C3.33337 10.8434 3.40361 11.013 3.52864 11.138C3.65366 11.263 3.82323 11.3333 4.00004 11.3333H12C12.1769 11.3333 12.3464 11.263 12.4714 11.138C12.5965 11.013 12.6667 10.8434 12.6667 10.6666V10.1599C12.6666 9.91186 12.5972 9.66876 12.4665 9.45795C12.3358 9.24714 12.1488 9.07697 11.9267 8.96658L10.74 8.36658C10.5179 8.2562 10.331 8.08603 10.2002 7.87522C10.0695 7.66441 10.0002 7.42131 10 7.17325V4.66658C10 4.48977 10.0703 4.3202 10.1953 4.19518C10.3203 4.07016 10.4899 3.99992 10.6667 3.99992C11.0203 3.99992 11.3595 3.85944 11.6095 3.60939C11.8596 3.35935 12 3.02021 12 2.66659C12 2.31296 11.8596 1.97382 11.6095 1.72378C11.3595 1.47373 11.0203 1.33325 10.6667 1.33325H5.33337C4.97975 1.33325 4.64061 1.47373 4.39056 1.72378C4.14052 1.97382 4.00004 2.31296 4.00004 2.66659C4.00004 3.02021 4.14052 3.35935 4.39056 3.60939C4.64061 3.85944 4.97975 3.99992 5.33337 3.99992C5.51019 3.99992 5.67975 4.07016 5.80478 4.19518C5.9298 4.3202 6.00004 4.48977 6.00004 4.66658V7.17325Z" fill="#9333EA"/>
<path d="M8.00004 11.3333V14.6666M6.00004 7.17325C5.99991 7.42131 5.93058 7.66441 5.79985 7.87522C5.66913 8.08603 5.48218 8.2562 5.26004 8.36658L4.07337 8.96658C3.85123 9.07697 3.66429 9.24714 3.53356 9.45795C3.40283 9.66876 3.33351 9.91186 3.33337 10.1599V10.6666C3.33337 10.8434 3.40361 11.013 3.52864 11.138C3.65366 11.263 3.82323 11.3333 4.00004 11.3333H12C12.1769 11.3333 12.3464 11.263 12.4714 11.138C12.5965 11.013 12.6667 10.8434 12.6667 10.6666V10.1599C12.6666 9.91186 12.5972 9.66876 12.4665 9.45795C12.3358 9.24714 12.1488 9.07697 11.9267 8.96658L10.74 8.36658C10.5179 8.2562 10.331 8.08603 10.2002 7.87522C10.0695 7.66441 10.0002 7.42131 10 7.17325V4.66659C10 4.48977 10.0703 4.3202 10.1953 4.19518C10.3203 4.07016 10.4899 3.99992 10.6667 3.99992C11.0203 3.99992 11.3595 3.85944 11.6095 3.60939C11.8596 3.35935 12 3.02021 12 2.66659C12 2.31296 11.8596 1.97382 11.6095 1.72378C11.3595 1.47373 11.0203 1.33325 10.6667 1.33325H5.33337C4.97975 1.33325 4.64061 1.47373 4.39056 1.72378C4.14052 1.97382 4.00004 2.31296 4.00004 2.66659C4.00004 3.02021 4.14052 3.35935 4.39056 3.60939C4.64061 3.85944 4.97975 3.99992 5.33337 3.99992C5.51019 3.99992 5.67975 4.07016 5.80478 4.19518C5.9298 4.3202 6.00004 4.48977 6.00004 4.66659V7.17325Z" stroke="#1F1F1F" stroke-opacity="0.121569" stroke-linecap="round" stroke-linejoin="round"/>
</svg>
