<svg width="30" height="30" viewBox="0 0 30 30" fill="none" xmlns="http://www.w3.org/2000/svg">
<path d="M26.25 11.25C26.251 10.8539 26.1735 10.4615 26.022 10.0955C25.8706 9.72949 25.6481 9.3971 25.3675 9.11751L20.8825 4.63251C20.6029 4.35191 20.2705 4.12946 19.9045 3.97799C19.5385 3.82652 19.1461 3.74904 18.75 3.75001M26.25 11.25V23.75C26.25 24.4131 25.9866 25.0489 25.5178 25.5178C25.0489 25.9866 24.413 26.25 23.75 26.25H6.25C5.58696 26.25 4.95107 25.9866 4.48223 25.5178C4.01339 25.0489 3.75 24.4131 3.75 23.75V6.25001C3.75 5.58697 4.01339 4.95108 4.48223 4.48224C4.95107 4.0134 5.58696 3.75001 6.25 3.75001H18.75M26.25 11.25H20C19.6685 11.25 19.3505 11.1183 19.1161 10.8839C18.8817 10.6495 18.75 10.3315 18.75 10V3.75001" stroke="#54A9FF" stroke-width="2" stroke-linecap="round" stroke-linejoin="round"/>
</svg>
