<svg width="24" height="24" viewBox="0 0 24 24" fill="none" xmlns="http://www.w3.org/2000/svg">
<path d="M4.00048 14.0007C3.81125 14.0013 3.62571 13.9482 3.46543 13.8476C3.30516 13.747 3.17671 13.603 3.09503 13.4323C3.01335 13.2616 2.98177 13.0712 3.00398 12.8833C3.02619 12.6954 3.10126 12.5176 3.22048 12.3707L13.1205 2.17065C13.1947 2.08493 13.2959 2.02701 13.4075 2.00638C13.519 1.98576 13.6342 2.00366 13.7342 2.05716C13.8342 2.11065 13.9131 2.19655 13.9578 2.30076C14.0026 2.40497 14.0106 2.5213 13.9805 2.63065L12.0605 8.65065C12.0039 8.80217 11.9849 8.96517 12.0051 9.12566C12.0253 9.28614 12.0841 9.43933 12.1766 9.57208C12.269 9.70482 12.3923 9.81317 12.5358 9.88781C12.6793 9.96246 12.8387 10.0012 13.0005 10.0007H20.0005C20.1897 10 20.3752 10.0531 20.5355 10.1537C20.6958 10.2543 20.8242 10.3983 20.9059 10.569C20.9876 10.7397 21.0192 10.9301 20.997 11.118C20.9748 11.3059 20.8997 11.4837 20.7805 11.6307L10.8805 21.8307C10.8062 21.9164 10.705 21.9743 10.5935 21.9949C10.482 22.0155 10.3668 21.9976 10.2668 21.9441C10.1667 21.8907 10.0879 21.8048 10.0431 21.7005C9.9984 21.5963 9.9904 21.48 10.0205 21.3707L11.9405 15.3507C11.9971 15.1991 12.0161 15.0361 11.9959 14.8756C11.9757 14.7152 11.9168 14.562 11.8244 14.4292C11.732 14.2965 11.6087 14.1881 11.4652 14.1135C11.3217 14.0388 11.1622 14.0001 11.0005 14.0007H4.00048Z" fill="#C7C8C9" stroke="#C7C8C9" stroke-width="2" stroke-linecap="round" stroke-linejoin="round"/>
</svg>
